<svg xmlns="http://www.w3.org/2000/svg" viewBox="0 0 24 24"><path fill="#001E36" d="M0 0h24v24H0z"/><path fill="#31A8FF" d="M4.5 6h2.8c2.9 0 4.1 1.4 4.1 3.7 0 2.5-1.5 3.8-4 3.8H6.1v4H4.5V6zm1.6 6h1.2c1.4 0 2.4-.6 2.4-2.4 0-1.7-.8-2.2-2.3-2.2H6.1v4.6zM13.6 11.4c.5-.3 1.3-.6 2.1-.6 1.4 0 2 .6 2 1.7v.2c-2.4 0-4.6.4-4.6 2.6 0 1.2.9 2.1 2.3 2.1 1.2 0 1.9-.6 2.3-1.3h.1v1.1h1.5V12.7c0-2.1-1.3-3.2-3.6-3.2-1.2 0-2.2.3-2.8.6l.7 1.3zm3.7 2.3v.4c0 1.3-1 2-2.1 2-.8 0-1.3-.4-1.3-1.1 0-1 1.1-1.3 3.4-1.3z"/></svg>
