<svg viewBox="0 0 64 64" xmlns="http://www.w3.org/2000/svg"><path d="M31.87 0c-17.55 0-21.28 17.1-21.28 17.1s-2.07 10.32-7.8 13.92c-6.8 4.29-2.34 16.32 6.53 15.68h.81c.54 9.77 8.35 17.3 17.84 17.3 9.87 0 17.88-8.01 17.88-17.88 0-.48-.03-.99-.06-1.47 5.16-4.59 7.38-7.59 6.81-12.72 2.37.15 4.86-.45 6.51-2.01 3.51-3.3-1.68-12.24-9.84-12.24-2.4 0-4.65.69-6.33 2.1-1.32-10.47-5.58-19.78-11.07-19.78zm-6.24 7.62c.93 0 1.95 2.16 1.2 3.84-.66 1.47-2.61 2.37-3.66 1.41-1.2-1.11-.93-5.25 2.46-5.25zm14.67 4.14c1.23 0 2.22 2.22 1.5 3.96-.81 1.92-2.97 2.01-4.02.93-1.14-1.17-.63-4.89 2.52-4.89zm-2.04 7.56c3.21 6.84-5.22 11.28-7.98 5.76-2.58-5.73 4.23-11.64 7.98-5.76z" fill="#336791"/></svg>