<svg xmlns="http://www.w3.org/2000/svg" width="24" height="24" viewBox="0 0 24 24" fill="currentColor"><path d="M7.74 8.01a3.63 3.63 0 0 0-1.12-.16H2.5v7.26h4.12c.56 0 1.07-.05 1.54-.16a2.82 2.82 0 0 0 1.25-.56 2.37 2.37 0 0 0 .8-1.02 3.86 3.86 0 0 0 .28-1.5c0-.62-.07-1.14-.23-1.56a2.6 2.6 0 0 0-.68-1.03 2.87 2.87 0 0 0-1.04-.6 4.3 4.3 0 0 0-.8-.17zm-.59 5.3c-.22.14-.52.22-.9.22H4.48v-1.85h1.77c.38 0 .68.08.9.22.21.14.32.38.32.72s-.11.55-.32.69zm-.27-3.13c.19.12.28.34.28.64s-.09.51-.28.64c-.19.12-.45.18-.79.18H4.48V8.98h1.39c.34 0 .6.06.79.18zm11.77-.37c-.55 0-1.04.11-1.46.32a2.87 2.87 0 0 0-1.08.9 4.34 4.34 0 0 0-.67 1.34 5.9 5.9 0 0 0-.22 1.63c0 .54.07 1.05.22 1.53a3.52 3.52 0 0 0 .63 1.22c.3.36.67.63 1.13.84.45.2.98.31 1.56.31 1.05 0 1.88-.31 2.48-.92.35-.36.61-.79.77-1.3h-1.92a1.32 1.32 0 0 1-.49.65 1.56 1.56 0 0 1-.9.24 1.5 1.5 0 0 1-1.2-.5 2.52 2.52 0 0 1-.52-1.4h5.18v-.22c0-.5-.06-.99-.18-1.47a3.86 3.86 0 0 0-.58-1.28 2.87 2.87 0 0 0-1.03-.94 3.03 3.03 0 0 0-1.43-.34zm-1.43 3.14a1.76 1.76 0 0 1 .45-1.12 1.48 1.48 0 0 1 1.08-.43 1.38 1.38 0 0 1 1.04.42c.31.28.47.65.51 1.13h-3.08zM15.1 6.55h5.48v1.17h-5.48z"/></svg>
